<svg width="309" height="168" viewBox="0 0 309 168" fill="none" xmlns="http://www.w3.org/2000/svg">
<path d="M52.7074 13.8182V8.72727H72.9347V13.8182H65.9347V32H59.7074V13.8182H52.7074ZM75.3125 32V8.72727H85.358C87.0852 8.72727 88.5966 9.04167 89.892 9.67045C91.1875 10.2992 92.1951 11.2045 92.9148 12.3864C93.6345 13.5682 93.9943 14.9848 93.9943 16.6364C93.9943 18.303 93.6231 19.7083 92.8807 20.8523C92.1458 21.9962 91.1117 22.8598 89.7784 23.4432C88.4527 24.0265 86.9034 24.3182 85.1307 24.3182H79.1307V19.4091H83.858C84.6004 19.4091 85.233 19.3182 85.7557 19.1364C86.286 18.947 86.6913 18.6477 86.9716 18.2386C87.2595 17.8295 87.4034 17.2955 87.4034 16.6364C87.4034 15.9697 87.2595 15.428 86.9716 15.0114C86.6913 14.5871 86.286 14.2765 85.7557 14.0795C85.233 13.875 84.6004 13.7727 83.858 13.7727H81.6307V32H75.3125ZM88.9489 21.3182L94.767 32H87.9034L82.2216 21.3182H88.9489ZM110.46 8.72727H116.778V23.6364C116.778 25.4091 116.354 26.9432 115.506 28.2386C114.665 29.5265 113.491 30.5227 111.983 31.2273C110.475 31.9242 108.725 32.2727 106.733 32.2727C104.725 32.2727 102.968 31.9242 101.46 31.2273C99.9527 30.5227 98.7784 29.5265 97.9375 28.2386C97.1042 26.9432 96.6875 25.4091 96.6875 23.6364V8.72727H103.006V23.0909C103.006 23.8106 103.165 24.4545 103.483 25.0227C103.801 25.5833 104.241 26.0227 104.801 26.3409C105.369 26.6591 106.013 26.8182 106.733 26.8182C107.46 26.8182 108.104 26.6591 108.665 26.3409C109.225 26.0227 109.665 25.5833 109.983 25.0227C110.301 24.4545 110.46 23.8106 110.46 23.0909V8.72727ZM132.327 16C132.266 15.2424 131.982 14.6515 131.474 14.2273C130.974 13.803 130.213 13.5909 129.19 13.5909C128.539 13.5909 128.005 13.6705 127.588 13.8295C127.179 13.9811 126.876 14.1894 126.679 14.4545C126.482 14.7197 126.38 15.0227 126.372 15.3636C126.357 15.6439 126.406 15.8977 126.52 16.125C126.641 16.3447 126.83 16.5455 127.088 16.7273C127.346 16.9015 127.675 17.0606 128.077 17.2045C128.478 17.3485 128.955 17.4773 129.509 17.5909L131.418 18C132.705 18.2727 133.808 18.6326 134.724 19.0795C135.641 19.5265 136.391 20.053 136.974 20.6591C137.558 21.2576 137.986 21.9318 138.259 22.6818C138.539 23.4318 138.683 24.25 138.69 25.1364C138.683 26.6667 138.3 27.9621 137.543 29.0227C136.785 30.0833 135.702 30.8902 134.293 31.4432C132.891 31.9962 131.205 32.2727 129.236 32.2727C127.213 32.2727 125.448 31.9735 123.94 31.375C122.44 30.7765 121.274 29.8561 120.44 28.6136C119.615 27.3636 119.198 25.7652 119.19 23.8182H125.19C125.228 24.5303 125.406 25.1288 125.724 25.6136C126.043 26.0985 126.49 26.4659 127.065 26.7159C127.649 26.9659 128.342 27.0909 129.145 27.0909C129.819 27.0909 130.384 27.0076 130.838 26.8409C131.293 26.6742 131.637 26.4432 131.872 26.1477C132.107 25.8523 132.228 25.5152 132.236 25.1364C132.228 24.7803 132.111 24.4697 131.884 24.2045C131.664 23.9318 131.3 23.6894 130.793 23.4773C130.285 23.2576 129.599 23.053 128.736 22.8636L126.418 22.3636C124.357 21.9167 122.732 21.1705 121.543 20.125C120.361 19.072 119.774 17.6364 119.781 15.8182C119.774 14.3409 120.168 13.0492 120.963 11.9432C121.766 10.8295 122.876 9.96212 124.293 9.34091C125.717 8.7197 127.349 8.40909 129.19 8.40909C131.069 8.40909 132.694 8.72348 134.065 9.35227C135.437 9.98106 136.493 10.8674 137.236 12.0114C137.986 13.1477 138.365 14.4773 138.372 16H132.327ZM140.457 13.8182V8.72727H160.685V13.8182H153.685V32H147.457V13.8182H140.457ZM163.062 32V8.72727H179.835V13.8182H169.381V17.8182H178.972V22.9091H169.381V26.9091H179.79V32H163.062ZM191.923 32H182.969V8.72727H191.832C194.226 8.72727 196.295 9.19318 198.037 10.125C199.787 11.0492 201.135 12.3826 202.082 14.125C203.037 15.8598 203.514 17.9394 203.514 20.3636C203.514 22.7879 203.041 24.8712 202.094 26.6136C201.147 28.3485 199.806 29.6818 198.071 30.6136C196.336 31.5379 194.287 32 191.923 32ZM189.287 26.6364H191.696C192.848 26.6364 193.829 26.4508 194.639 26.0795C195.457 25.7083 196.079 25.0682 196.503 24.1591C196.935 23.25 197.151 21.9848 197.151 20.3636C197.151 18.7424 196.931 17.4773 196.491 16.5682C196.06 15.6591 195.423 15.0189 194.582 14.6477C193.749 14.2765 192.726 14.0909 191.514 14.0909H189.287V26.6364ZM212.812 32V8.72727H222.903C224.676 8.72727 226.165 8.96591 227.369 9.44318C228.581 9.92045 229.494 10.5947 230.108 11.4659C230.729 12.3371 231.04 13.3636 231.04 14.5455C231.04 15.4015 230.85 16.1818 230.472 16.8864C230.1 17.5909 229.578 18.1818 228.903 18.6591C228.229 19.1288 227.441 19.4545 226.54 19.6364V19.8636C227.54 19.9015 228.449 20.1553 229.267 20.625C230.085 21.0871 230.737 21.7273 231.222 22.5455C231.706 23.3561 231.949 24.3106 231.949 25.4091C231.949 26.6818 231.616 27.8144 230.949 28.8068C230.29 29.7992 229.35 30.5795 228.131 31.1477C226.911 31.7159 225.456 32 223.767 32H212.812ZM219.131 26.9545H222.085C223.146 26.9545 223.941 26.7576 224.472 26.3636C225.002 25.9621 225.267 25.3712 225.267 24.5909C225.267 24.0455 225.142 23.5833 224.892 23.2045C224.642 22.8258 224.286 22.5379 223.824 22.3409C223.369 22.1439 222.82 22.0455 222.176 22.0455H219.131V26.9545ZM219.131 18.1364H221.722C222.275 18.1364 222.763 18.0492 223.188 17.875C223.612 17.7008 223.941 17.4508 224.176 17.125C224.419 16.7917 224.54 16.3864 224.54 15.9091C224.54 15.1894 224.282 14.6402 223.767 14.2614C223.252 13.875 222.6 13.6818 221.812 13.6818H219.131V18.1364ZM233.233 8.72727H240.278L244.824 18.1818H245.006L249.551 8.72727H256.597L248.051 24.6818V32H241.778V24.6818L233.233 8.72727Z" fill="white"/>
<path d="M90.0952 160H81.1406V136.727H90.0043C92.3982 136.727 94.4664 137.193 96.2088 138.125C97.9588 139.049 99.3073 140.383 100.254 142.125C101.209 143.86 101.686 145.939 101.686 148.364C101.686 150.788 101.213 152.871 100.266 154.614C99.3187 156.348 97.9777 157.682 96.2429 158.614C94.508 159.538 92.4588 160 90.0952 160ZM87.4588 154.636H89.8679C91.0194 154.636 92.0005 154.451 92.8111 154.08C93.6293 153.708 94.2505 153.068 94.6747 152.159C95.1065 151.25 95.3224 149.985 95.3224 148.364C95.3224 146.742 95.1027 145.477 94.6634 144.568C94.2315 143.659 93.5952 143.019 92.7543 142.648C91.9209 142.277 90.8982 142.091 89.6861 142.091H87.4588V154.636ZM104.609 160V136.727H121.382V141.818H110.928V145.818H120.518V150.909H110.928V154.909H121.337V160H104.609ZM130.561 160H123.743L131.425 136.727H140.061L147.743 160H140.925L135.834 143.136H135.652L130.561 160ZM129.288 150.818H142.107V155.545H129.288V150.818ZM149.984 160V136.727H156.303V154.909H165.712V160H149.984ZM168.266 160V136.727H185.038V141.818H174.584V145.818H184.175V150.909H174.584V154.909H184.993V160H168.266ZM188.172 160V136.727H198.217C199.945 136.727 201.456 137.042 202.751 137.67C204.047 138.299 205.054 139.205 205.774 140.386C206.494 141.568 206.854 142.985 206.854 144.636C206.854 146.303 206.482 147.708 205.74 148.852C205.005 149.996 203.971 150.86 202.638 151.443C201.312 152.027 199.763 152.318 197.99 152.318H191.99V147.409H196.717C197.46 147.409 198.092 147.318 198.615 147.136C199.145 146.947 199.551 146.648 199.831 146.239C200.119 145.83 200.263 145.295 200.263 144.636C200.263 143.97 200.119 143.428 199.831 143.011C199.551 142.587 199.145 142.277 198.615 142.08C198.092 141.875 197.46 141.773 196.717 141.773H194.49V160H188.172ZM201.808 149.318L207.626 160H200.763L195.081 149.318H201.808ZM222.092 144C222.032 143.242 221.748 142.652 221.24 142.227C220.74 141.803 219.979 141.591 218.956 141.591C218.304 141.591 217.77 141.67 217.354 141.83C216.945 141.981 216.642 142.189 216.445 142.455C216.248 142.72 216.145 143.023 216.138 143.364C216.123 143.644 216.172 143.898 216.286 144.125C216.407 144.345 216.596 144.545 216.854 144.727C217.111 144.902 217.441 145.061 217.842 145.205C218.244 145.348 218.721 145.477 219.274 145.591L221.183 146C222.471 146.273 223.573 146.633 224.49 147.08C225.407 147.527 226.157 148.053 226.74 148.659C227.323 149.258 227.751 149.932 228.024 150.682C228.304 151.432 228.448 152.25 228.456 153.136C228.448 154.667 228.066 155.962 227.308 157.023C226.551 158.083 225.467 158.89 224.058 159.443C222.657 159.996 220.971 160.273 219.001 160.273C216.979 160.273 215.214 159.973 213.706 159.375C212.206 158.777 211.039 157.856 210.206 156.614C209.38 155.364 208.964 153.765 208.956 151.818H214.956C214.994 152.53 215.172 153.129 215.49 153.614C215.808 154.098 216.255 154.466 216.831 154.716C217.414 154.966 218.107 155.091 218.911 155.091C219.585 155.091 220.149 155.008 220.604 154.841C221.058 154.674 221.403 154.443 221.638 154.148C221.873 153.852 221.994 153.515 222.001 153.136C221.994 152.78 221.876 152.47 221.649 152.205C221.429 151.932 221.066 151.689 220.558 151.477C220.051 151.258 219.365 151.053 218.501 150.864L216.183 150.364C214.123 149.917 212.498 149.17 211.308 148.125C210.126 147.072 209.539 145.636 209.547 143.818C209.539 142.341 209.933 141.049 210.729 139.943C211.532 138.83 212.642 137.962 214.058 137.341C215.482 136.72 217.115 136.409 218.956 136.409C220.835 136.409 222.46 136.723 223.831 137.352C225.202 137.981 226.259 138.867 227.001 140.011C227.751 141.148 228.13 142.477 228.138 144H222.092Z" fill="white"/>
<path d="M136.098 44.4545V123H114.775V64.0909H114.314L97.1325 74.3693V56.267L116.462 44.4545H136.098ZM180.735 124.074C176.158 124.074 171.812 123.358 167.695 121.926C163.604 120.469 159.974 118.18 156.803 115.061C153.633 111.942 151.14 107.876 149.325 102.865C147.535 97.8537 146.653 91.7812 146.678 84.6477C146.704 78.2812 147.522 72.554 149.133 67.4659C150.769 62.3778 153.083 58.044 156.075 54.4645C159.092 50.8849 162.697 48.1491 166.89 46.2571C171.083 44.3395 175.749 43.3807 180.888 43.3807C186.667 43.3807 191.755 44.4929 196.153 46.7173C200.55 48.9418 204.053 51.9205 206.661 55.6534C209.295 59.3608 210.829 63.4517 211.263 67.9261H190.246C189.761 65.7017 188.636 64.0781 186.871 63.0554C185.133 62.0071 183.138 61.483 180.888 61.483C176.414 61.483 173.129 63.4261 171.032 67.3125C168.961 71.1989 167.9 76.3125 167.849 82.6534H168.309C169.306 80.25 170.815 78.1918 172.834 76.4787C174.854 74.7656 177.207 73.4489 179.891 72.5284C182.576 71.608 185.414 71.1477 188.406 71.1477C193.161 71.1477 197.316 72.2216 200.87 74.3693C204.45 76.517 207.236 79.4574 209.231 83.1903C211.225 86.9233 212.209 91.1932 212.184 96C212.209 101.625 210.88 106.547 208.195 110.766C205.536 114.984 201.842 118.257 197.111 120.584C192.381 122.911 186.923 124.074 180.735 124.074ZM180.582 107.966C182.704 107.966 184.583 107.48 186.219 106.509C187.881 105.537 189.173 104.207 190.093 102.52C191.039 100.832 191.499 98.9148 191.474 96.767C191.499 94.5937 191.039 92.6761 190.093 91.0142C189.173 89.3267 187.881 87.9972 186.219 87.0256C184.583 86.054 182.704 85.5682 180.582 85.5682C179.022 85.5682 177.577 85.8494 176.248 86.4119C174.944 86.9489 173.806 87.7287 172.834 88.7514C171.863 89.7486 171.096 90.9375 170.533 92.3182C169.996 93.6733 169.715 95.1562 169.69 96.767C169.715 98.9148 170.201 100.832 171.147 102.52C172.093 104.207 173.384 105.537 175.021 106.509C176.657 107.48 178.511 107.966 180.582 107.966Z" fill="white"/>
</svg>
